<svg xmlns="http://www.w3.org/2000/svg" fill="none" class="icon icon-cart" viewBox="0 0 40 40">
<path fill="currentColor" fill-rule="evenodd"  d="M25.8,30.5H14.2c-1.2,0-1.8,0-2.3-0.3c-0.5-0.2-0.9-0.6-1.1-1.1c-0.3-0.5-0.3-1.1-0.3-2.3V15.1c0-0.4,0-0.6,0-0.9
	c0-0.2,0.1-0.4,0.2-0.6c0.1-0.2,0.2-0.4,0.5-0.7l1.9-2.5c0,0,0,0,0,0c0.2-0.3,0.3-0.4,0.5-0.5c0.1-0.1,0.3-0.2,0.5-0.2
	c0.2-0.1,0.4-0.1,0.7-0.1h10.4c0.3,0,0.5,0,0.7,0.1c0.2,0.1,0.3,0.1,0.5,0.2c0.2,0.1,0.3,0.3,0.5,0.5c0,0,0,0,0,0l1.9,2.5
	c0.2,0.3,0.4,0.5,0.5,0.7c0.1,0.2,0.2,0.4,0.2,0.6c0,0.2,0,0.5,0,0.9v11.7c0,1.2,0,1.8-0.3,2.3c-0.2,0.5-0.6,0.9-1.1,1.1
	C27.6,30.5,27,30.5,25.8,30.5z M11.5,14.4C11.5,14.4,11.5,14.4,11.5,14.4c0,0.1,0,0.3,0,0.7v11.7c0,1,0,1.6,0.2,1.9
	c0.1,0.3,0.4,0.5,0.7,0.7c0.3,0.2,0.8,0.2,1.9,0.2h11.6c1,0,1.6,0,1.9-0.2c0.3-0.1,0.5-0.4,0.7-0.7c0.2-0.3,0.2-0.8,0.2-1.9V15.1
	c0-0.4,0-0.5,0-0.7c0,0,0,0,0,0c-0.2,0.1-0.6,0.1-1.1,0.1H12.6C12.1,14.5,11.8,14.5,11.5,14.4z M13.9,10.9L13.9,10.9L12.4,13
	c-0.2,0.2-0.3,0.5-0.4,0.5c0,0,0.3,0,0.6,0h14.8c0.2,0,0.5,0,0.6,0c0,0,0,0,0,0l-0.2-0.3c0,0-0.1-0.1-0.1-0.1l-1.6-2.1c0,0,0,0,0,0
	c-0.1-0.2-0.2-0.3-0.3-0.3c0,0-0.1-0.1-0.2-0.1c-0.1,0-0.2,0-0.4,0H14.8c-0.2,0-0.4,0-0.4,0c-0.1,0-0.1,0-0.2,0.1
	C14.1,10.6,14.1,10.7,13.9,10.9C13.9,10.9,13.9,10.9,13.9,10.9z M20,22.5c-1.2,0-2.3-0.5-3.2-1.3c-0.9-0.9-1.3-2-1.3-3.2
	c0-0.3,0.2-0.5,0.5-0.5s0.5,0.2,0.5,0.5c0,0.9,0.4,1.8,1,2.5c0.7,0.7,1.5,1,2.5,1c0.9,0,1.8-0.4,2.5-1c0.7-0.7,1-1.5,1-2.5
	c0-0.3,0.2-0.5,0.5-0.5s0.5,0.2,0.5,0.5c0,1.2-0.5,2.3-1.3,3.2C22.3,22,21.2,22.5,20,22.5z"/>
</svg>
