<svg xmlns="http://www.w3.org/2000/svg" class="icon icon-accordion icon-wifi" viewBox="0 0 20 20"><g transform="translate(1.5 2.5) scale(0.45)">
          <path d="M22.79 0.0505897C23.31 0.0705902 24.01 0.120591 24.83 0.220592C26.56 0.450592 28.26 0.850589 29.9 1.42059C32.24 2.23059 34.46 3.36059 36.49 4.77059C38.65 6.27059 40.59 8.07059 42.24 10.1206C42.87 10.8906 42.84 11.5406 42.16 12.2506C41.71 12.7206 41.26 13.1906 40.81 13.6606C40.59 13.9106 40.26 14.0406 39.92 14.0306C39.58 14.0106 39.27 13.8506 39.07 13.5706C36.53 10.3306 33.38 7.88059 29.56 6.34059C20.4 2.66059 10.02 5.47059 3.81002 13.2806C2.92002 14.4006 2.58002 14.4206 1.58002 13.3906C1.19002 12.9906 0.800022 12.5806 0.410023 12.1706C0.160023 11.9106 0.0200198 11.5606 0.0100215 11.2006C2.31769e-05 10.8406 0.120022 10.4806 0.350022 10.2006C1.75002 8.50059 4.72002 5.14059 9.15002 2.96059C9.15002 2.96059 13.02 1.06059 16.94 0.360591C17.56 0.250591 18.17 0.170588 18.17 0.170588C18.46 0.130588 18.96 0.0705889 19.61 0.030589C20.05 0.0105886 20.58 -0.0194102 21.18 0.000590351L22.78 0.0505897L22.79 0.0505897Z" />
          <path d="M22.3899 33.5508C22.0999 33.6508 21.3099 33.8908 20.4299 33.5708C19.2699 33.1408 18.4199 31.8908 18.5599 30.5208C18.6899 29.1908 19.6899 28.1008 21.0099 27.9408C22.1599 27.8008 23.0599 28.2608 23.6699 29.2208C23.9899 29.7008 24.1599 30.2608 24.1599 30.8408C24.1599 31.4208 23.9799 31.9808 23.6599 32.4508C23.3899 32.8708 23.0199 33.2108 22.5899 33.4608L22.3899 33.5508Z" />
          <path d="M21.3699 9.47028C27.4399 9.63028 32.2499 12.2003 35.8999 17.0403C36.3399 17.6303 36.2799 18.3803 35.7599 18.9403C35.2499 19.4903 34.7299 20.0203 34.2099 20.5603C33.6299 21.1503 33.0999 21.1103 32.6399 20.4203C31.3999 18.5603 29.8199 17.0503 27.8599 15.9503C21.7699 12.5203 14.1799 14.3603 10.1799 20.2303C10.0899 20.3703 9.98995 20.5103 9.87995 20.6503C9.52995 21.0403 9.01995 21.0903 8.64995 20.7203C8.03995 20.1203 7.43995 19.5003 6.85995 18.8603C6.38995 18.3403 6.37995 17.6003 6.80995 17.0203C9.73995 13.1003 13.5599 10.6003 18.4099 9.74028C18.7599 9.68028 19.0999 9.62028 19.4499 9.59028C20.0799 9.51028 20.7199 9.48028 21.3599 9.48028L21.3699 9.47028Z" />
          <path d="M21.4299 18.9509C24.8799 19.031 27.7499 20.441 30.0099 23.111C30.4899 23.681 30.4599 24.431 29.9399 24.991C29.3999 25.571 28.8499 26.141 28.2899 26.701C27.7999 27.1909 27.2799 27.171 26.8499 26.611C26.4899 26.121 26.0799 25.671 25.6199 25.281C22.6999 22.8609 18.5499 23.2809 16.1499 26.2209C16.0399 26.3509 15.9499 26.4909 15.8399 26.6209C15.3999 27.1609 14.8899 27.1909 14.3999 26.6909C13.8599 26.1309 13.3199 25.5709 12.7799 25.0109C12.2099 24.4109 12.1999 23.6709 12.7499 23.0309C15.0199 20.3909 17.8899 19.0209 21.4299 18.9509Z" />
        </g></svg>
