<svg xmlns="http://www.w3.org/2000/svg" class="icon icon-accordion icon-alert" viewBox="0 0 20 20"> <g transform="translate(3 0) scale(0.4)">
          <path d="M12.1808 28.6985C12.1808 28.6985 12.1808 28.7957 12.1808 28.839C12.2024 28.839 12.2348 28.839 12.2563 28.839C12.2995 28.839 12.3534 28.839 12.3966 28.839C14.9316 28.839 17.4775 28.839 20.0125 28.839C20.2391 28.839 20.4656 28.8606 20.6814 28.947C21.21 29.1523 21.5552 29.5197 21.717 30.0708C21.7493 30.1896 21.7709 30.3085 21.7709 30.4381C21.7709 31.0108 21.7817 31.5943 21.7709 32.167C21.7601 32.8369 21.4041 33.3015 20.8216 33.604C20.6166 33.7121 20.4009 33.7553 20.1744 33.7661C20.1312 33.7661 20.0881 33.7661 20.0557 33.7661C20.0125 33.7877 20.0125 33.8201 20.0018 33.8526C19.9047 34.2956 19.7968 34.7386 19.6997 35.1708C19.4516 36.2729 19.1927 37.375 18.9446 38.4772C18.6965 39.5685 18.4484 40.6598 18.1895 41.7511C17.9521 42.7776 17.7256 43.7933 17.4883 44.8198C17.4559 44.9819 17.4128 45.144 17.3804 45.306C17.2078 46.0408 16.7655 46.5594 16.0751 46.862C15.7838 46.9916 15.471 47.0457 15.1474 47.0457C14.1549 47.0457 13.1625 47.0457 12.17 47.0457L9.30055 47.0457L6.85179 47.0457C5.68674 47.0457 4.6835 46.2029 4.48933 45.0467L2.65545 34.3064L2.55836 33.7553L2.10529 33.7553C1.29622 33.7553 0.638188 33.0962 0.638188 32.2858L0.638188 31.1945C0.638188 30.9568 0.638188 30.7191 0.638188 30.4814C0.638188 29.833 0.940238 29.3684 1.47961 29.0443C1.71694 28.9038 1.98662 28.8282 2.2671 28.8282C2.32104 28.8282 2.37498 28.8282 2.42891 28.8282C4.89925 28.8282 7.3588 28.8282 9.82914 28.8282C9.88308 28.8282 9.93702 28.8282 10.0017 28.8174C10.0017 28.7201 10.0233 28.6229 10.0341 28.5256C10.0665 28.115 10.088 27.7044 10.1204 27.3046C10.1528 26.9157 10.1851 26.5267 10.2067 26.1485C10.2283 25.8676 10.2499 25.5866 10.2714 25.3057C10.3038 24.9275 10.3362 24.5493 10.3577 24.1711C10.3793 23.901 10.4009 23.6309 10.4225 23.3716C10.4332 23.2203 10.444 23.069 10.4548 22.9069C10.4548 22.8745 10.4548 22.8421 10.4548 22.7989C10.4117 22.8097 10.3793 22.8205 10.3469 22.8313C10.0341 22.9502 9.72127 23.0366 9.38686 23.0906C9.04165 23.1447 8.70724 23.1663 8.35125 23.1447C7.58534 23.0798 6.89494 22.8097 6.26927 22.3775C5.88091 22.1074 5.52493 21.794 5.21209 21.4374C4.7698 20.9512 4.38145 20.4109 4.04704 19.8383C3.59396 19.0819 3.2164 18.2931 2.89277 17.4719C2.46127 16.3914 2.12686 15.2893 1.85718 14.1656C1.84639 14.1115 1.8356 14.0683 1.82481 14.0143C1.87875 13.9927 1.93269 14.0035 1.97584 14.0143C2.36419 14.0575 2.75254 14.0899 3.14089 14.144C4.27358 14.2844 5.39548 14.5113 6.48502 14.8571C7.24014 15.1056 7.9629 15.4082 8.64252 15.8079C9.21425 16.1429 9.73206 16.5319 10.1959 17.0181C10.7677 17.6232 11.1992 18.3147 11.4365 19.1143C11.5444 19.4709 11.6091 19.8275 11.6307 20.1948C11.6522 20.465 11.6307 20.7351 11.6199 21.0052C11.6199 21.016 11.6199 21.0268 11.6199 21.0376C11.6199 21.0376 11.6199 21.0376 11.6307 21.0376C11.6307 21.0376 11.6414 21.0268 11.6522 21.016C12.3426 19.3304 13.1409 17.6989 13.9068 16.0457C13.8745 16.0024 13.8529 15.9592 13.8205 15.916C13.389 15.2569 13.033 14.5654 12.7741 13.8306C12.6015 13.312 12.4721 12.7933 12.4074 12.2531C12.3642 11.8533 12.3426 11.4427 12.3642 11.0429C12.4181 9.96236 12.6986 8.94667 13.1517 7.9634C13.5077 7.18543 13.9608 6.45068 14.4786 5.76996C15.0611 5.00279 15.7083 4.28965 16.3987 3.63053C17.8335 2.26908 19.4084 1.11293 21.1129 0.118857C21.1776 0.075636 21.2531 0.0432205 21.3286 -1.06678e-07C21.3286 -1.06678e-07 21.3502 -1.05734e-07 21.361 -1.05262e-07C21.3718 0.075636 21.3933 0.162077 21.4041 0.237713C21.4473 0.518648 21.4796 0.799582 21.512 1.09132C21.5444 1.39387 21.5767 1.70722 21.6091 2.00976C21.6199 2.12862 21.6307 2.25828 21.6415 2.37714C21.6954 3.27396 21.717 4.17079 21.6954 5.06762C21.6846 5.48902 21.6523 5.92123 21.6199 6.34263C21.5228 7.542 21.3286 8.73057 21.005 9.89753C20.7245 10.924 20.347 11.9073 19.8292 12.8365C19.3329 13.7334 18.7288 14.5545 17.9953 15.2677C17.3372 15.9052 16.6037 16.4563 15.7838 16.8669C14.8238 17.3423 14.0902 18.0662 13.54 18.9739C13.2056 19.5141 12.9575 20.0976 12.7526 20.7027C12.5584 21.2862 12.4181 21.8804 12.3103 22.4855C12.2455 22.8637 12.2024 23.2419 12.17 23.6201C12.17 23.7173 12.17 23.8038 12.1592 23.901C12.1916 23.9118 12.2024 23.901 12.2132 23.8794C12.2671 23.8038 12.3211 23.7281 12.3642 23.6417C12.8928 22.8637 13.4753 22.1182 14.1334 21.4374C14.8022 20.7567 15.5357 20.1516 16.3556 19.6546C17.1646 19.1684 18.0169 18.8118 18.9338 18.6065C19.2251 18.5417 19.5055 18.4984 19.7968 18.4552C20.2391 18.4012 20.6814 18.3904 21.1237 18.412C21.9867 18.4552 22.8173 18.6173 23.6264 18.9414C23.6587 18.9522 23.7019 18.9739 23.7342 18.9847C23.745 18.9847 23.7558 18.9955 23.7666 19.0063C23.7666 19.0279 23.745 19.0495 23.7342 19.0711C22.9791 20.4758 22.1485 21.8372 21.1668 23.1014C20.7353 23.6525 20.2822 24.1819 19.7752 24.6682C19.3329 25.0896 18.8583 25.4786 18.3297 25.8027C17.8658 26.0837 17.3912 26.289 16.8626 26.4186C16.5066 26.5051 16.1506 26.5267 15.7838 26.5159C15.2768 26.4943 14.7914 26.3862 14.306 26.2349C14.0471 26.1593 13.7882 26.0837 13.5293 26.008C13.3998 25.9756 13.2596 25.954 13.1193 25.9648C12.9144 25.9648 12.7633 26.062 12.6447 26.2241C12.5907 26.2998 12.5584 26.3754 12.5152 26.4618C12.4181 26.6887 12.3534 26.9265 12.3103 27.1642C12.2455 27.4775 12.2024 27.8017 12.1808 28.1258C12.17 28.3203 12.1485 28.5148 12.1377 28.7093L12.1808 28.6985Z"/>
          <path d="M32.3103 1.65316C27.5854 1.58832 23.6803 5.41335 23.6479 10.146C23.6372 12.1342 24.2952 13.9602 25.4063 15.4189C25.471 15.5162 25.5465 15.635 25.6436 15.7539C27.4128 18.1634 26.3448 19.9679 25.6868 20.7243C25.5573 20.8755 25.676 21.1132 25.881 21.1024C27.9198 20.9728 29.3653 20.1732 30.2391 19.5033C30.8432 19.0387 31.5768 18.7793 32.3319 18.7685C32.3535 18.7685 32.375 18.7685 32.4074 18.7685C37.0244 18.6497 40.7354 14.8355 40.7354 10.2C40.7354 5.5106 36.9705 1.71799 32.3103 1.65316ZM33.5185 4.6678L33.0546 12.1342L31.3826 12.1342L30.9187 4.6678L33.5293 4.6678L33.5185 4.6678ZM32.2132 15.7539C31.4149 15.7539 30.7893 15.1272 30.7893 14.3276C30.7893 13.528 31.4257 12.9445 32.2132 12.9445C33.0007 12.9445 33.594 13.5821 33.594 14.3276C33.594 15.1164 32.9791 15.7539 32.2132 15.7539Z" />
        </g></svg>
