<svg xmlns="http://www.w3.org/2000/svg" class="icon icon-accordion icon-sensor-pot" viewBox="0 0 20 20"><g transform="translate(4.5 -0.5) scale(0.42)">
          <path d="M16.1791 22.2411C16.147 21.2956 15.9117 20.3931 15.4731 19.5658C14.4461 17.621 13.3977 15.687 12.3493 13.753C11.9534 13.0224 11.5576 12.2917 11.3865 11.4537C11.2795 10.9487 11.1832 10.4544 10.9264 9.9924C9.19339 6.81203 7.48173 3.62091 5.75937 0.429794C5.51331 -0.0214755 5.51331 -0.0322201 4.99981 0.0429915C3.5342 0.268626 2.34673 0.977763 1.43741 2.13817C1.39462 2.19189 1.38392 2.32083 1.41602 2.38529C1.57649 2.70763 1.74765 3.01922 1.90812 3.33081C3.51281 6.30704 5.11749 9.28327 6.72218 12.2702C6.94683 12.6893 7.21428 13.0653 7.57801 13.3769C7.98453 13.7422 8.34826 14.1398 8.6157 14.634C9.73898 16.7292 10.873 18.8136 11.9855 20.9088C12.4669 21.8114 13.0553 22.6279 13.847 23.2726C14.1893 23.552 14.5744 23.7776 14.8847 23.7883C15.441 23.7883 15.8261 23.5949 15.9759 23.2081C16.0935 22.9073 16.1898 22.5635 16.1791 22.2411ZM13.28 20.8981C13.2158 20.8981 13.1195 20.8766 13.0767 20.8336C12.9911 20.7154 12.927 20.5757 12.8521 20.4361C12.1353 19.1037 11.4186 17.7822 10.7125 16.4499C10.6911 16.4069 10.6483 16.3639 10.6483 16.3102C10.6483 16.235 10.6804 16.1597 10.7018 16.0845C10.7767 16.106 10.8623 16.1275 10.9371 16.1705C10.9585 16.1812 10.9692 16.235 10.9906 16.2672C11.7609 17.6962 12.5204 19.1145 13.2907 20.5435C13.3228 20.608 13.3549 20.6832 13.3977 20.7799C13.3549 20.8336 13.3228 20.9088 13.28 20.9088L13.28 20.8981ZM14.553 20.2104C14.553 20.2104 14.4247 20.2104 14.3819 20.1782C14.3284 20.146 14.307 20.0707 14.2749 20.017C13.5046 18.588 12.7451 17.1697 11.9748 15.7407C11.9534 15.7085 11.9214 15.6762 11.9214 15.644C11.9214 15.5581 11.9427 15.4721 11.9641 15.3969C12.0497 15.4291 12.1674 15.4291 12.2102 15.4936C12.3707 15.7622 12.5204 16.0416 12.6595 16.3102C13.2907 17.4813 13.9219 18.6632 14.553 19.8344C14.5851 19.8988 14.6172 19.974 14.6707 20.06C14.6279 20.1137 14.6065 20.1782 14.553 20.1997L14.553 20.2104Z" />
          <path d="M24.4699 27.3337C24.288 27.4411 23.3252 27.5808 21.9238 27.7312C19.7949 27.9568 16.6604 28.2147 13.6864 28.4296C9.35377 28.7519 5.36345 28.9991 5.36345 28.9991L0.966616 27.3229C0.913126 26.9469 -0.0389862 25.3782 11.825 25.2492C23.689 25.1203 25.3578 26.7964 24.4699 27.3229L24.4699 27.3337Z" />
          <path d="M15.0559 28.5055C15.0559 28.5055 14.4996 28.4732 13.6865 28.4303C10.5841 28.2691 3.30956 27.8823 3.30956 27.8823L4.03702 27.3343C4.03702 27.3343 6.86126 26.7541 8.35897 26.9905C9.85667 27.2161 9.07573 27.1946 10.3809 27.1409C11.686 27.0872 12.2958 26.9798 13.6116 27.0335C14.9382 27.0872 16.3717 26.3673 18.1368 26.8293C19.8485 27.2699 20.2657 26.6252 21.6244 27.474C21.6244 27.474 21.7099 27.5277 21.742 27.5492C21.849 27.6137 21.9025 27.6782 21.9132 27.7426C22.0951 28.5162 15.2163 28.5377 15.0452 28.5162L15.0559 28.5055Z" />
          <path d="M15.0344 34.0383C18.5754 33.8342 21.5387 33.3614 22.876 33.125L19.8485 46.2763C19.688 46.9639 19.1745 47.5119 18.5112 47.7268C15.7298 48.6078 13.0767 48.6938 10.9371 48.4789C9.27895 48.3177 7.92031 47.9847 7.04309 47.7161C6.36912 47.5119 5.85562 46.9639 5.69515 46.2763L2.57136 33.0605C6.54028 34.1457 11.1511 34.2532 15.0451 34.0276L15.0344 34.0383Z" />
          <path d="M11.825 25.25C-0.0389862 25.3789 0.913126 26.9476 0.966616 27.3237L5.36345 28.9998C5.36345 28.9998 9.35377 28.7527 13.6864 28.4304C14.4888 28.4734 15.013 28.5056 15.0557 28.5056C15.2269 28.5271 22.1057 28.5056 21.9238 27.732C23.3252 27.5816 24.2773 27.4419 24.4699 27.3344C25.3578 26.808 23.689 25.1318 11.825 25.2607L11.825 25.25ZM21.635 27.4634C19.934 27.6997 17.3772 27.8931 13.6008 27.8931C9.1826 27.8931 6.09091 27.6245 4.04761 27.3452C2.67828 27.1518 1.76896 26.9476 1.24476 26.808C1.42663 26.5071 2.78526 25.4004 12.7771 25.4004C22.662 25.4004 24.1811 26.5393 24.4164 26.8617C23.9564 27.0336 23.1113 27.27 21.635 27.4741L21.635 27.4634Z" />
          <path d="M12.7665 25.1523C1.19141 25.1523 0.635115 26.6243 0.635115 26.6243L0.635114 30.7502C0.635114 30.9651 0.784884 31.1585 0.998842 31.2015C1.39466 31.2875 1.77979 31.3627 2.16491 31.4379C4.52915 31.8891 6.72222 32.1793 8.75482 32.3512C15.9973 32.9529 21.036 32.0288 23.2398 31.4809C23.3895 31.4486 23.5179 31.4056 23.6356 31.3734C23.8603 31.3089 24.0421 31.2552 24.1812 31.223C24.3631 31.1693 24.4914 31.0081 24.5021 30.8254L24.8979 26.6243C24.8979 26.6243 24.3417 25.1523 12.7665 25.1523ZM24.47 27.3335C24.2882 27.4409 23.3254 27.5806 21.9239 27.731C22.1058 28.5046 15.227 28.5261 15.0559 28.5046C15.0131 28.5046 14.4996 28.4724 13.6866 28.4294C9.3539 28.7518 5.36359 28.9989 5.36359 28.9989L0.966749 27.3227C0.91326 26.9467 -0.0388537 25.378 11.8251 25.249C23.6891 25.1201 25.358 26.7963 24.47 27.3227L24.47 27.3335Z" />      
        </g></svg>
