<svg xmlns="http://www.w3.org/2000/svg" class="icon icon-accordion icon-bluetooth" viewBox="0 0 20 20"><g transform="translate(4 2) scale(1.3)">
          <path d="M11.978,7.776l-.941.941a.338.338,0,0,0,0,.484l.941.941a.345.345,0,0,0,.579-.157,4.78,4.78,0,0,0,.116-1.036,4.09,4.09,0,0,0-.123-1.009.34.34,0,0,0-.573-.164Zm2.809-1.7a.588.588,0,0,0-.954-.164.6.6,0,0,0-.116.668,5.971,5.971,0,0,1,.491,2.366,5.9,5.9,0,0,1-.5,2.379.569.569,0,1,0,1.029.484,6.7,6.7,0,0,0,.668-2.931,6.814,6.814,0,0,0-.62-2.8ZM8.863,8.949,11.31,6.508a.687.687,0,0,0,0-.968L8.386,2.616a.682.682,0,0,0-1.166.477V7.306L4.568,4.654a.68.68,0,0,0-.961.961L6.941,8.949,3.607,12.282a.68.68,0,0,0,.961.961L7.22,10.592V14.8a.684.684,0,0,0,1.166.484l2.925-2.931a.687.687,0,0,0,0-.968Zm-.28-4.206L9.865,6.024,8.583,7.306Zm0,8.412V10.592l1.282,1.282Z" transform="translate(-3.408 -2.414)"></path>
        </g></svg>
